<svg xmlns="http://www.w3.org/2000/svg" width="94" height="94" viewBox="0 0 94 94">
  <g id="Icon_ionic-ios-notifications-outline" data-name="Icon ionic-ios-notifications-outline" transform="matrix(0.94, 0.342, -0.342, 0.94, 33.445, 7.764)">
    <circle id="Ellipse_1" data-name="Ellipse 1" cx="47" cy="47" r="47" transform="matrix(0.94, -0.342, 0.342, 0.94, -34.083, 4.143)" fill="#275373"/>
    <path id="Path_3" data-name="Path 3" d="M12.968,0a2.083,2.083,0,0,0-2.043,1.641,4.031,4.031,0,0,1-.8,1.753,3.04,3.04,0,0,1-2.59.949,3.091,3.091,0,0,1-2.59-.949,4.031,4.031,0,0,1-.8-1.753A2.083,2.083,0,0,0,2.094,0h0A2.1,2.1,0,0,0,.051,2.558a7.187,7.187,0,0,0,7.48,5.968,7.174,7.174,0,0,0,7.48-5.968A2.105,2.105,0,0,0,12.968,0Z" transform="translate(18.133 55.833)" fill="#9effff"/>
    <path id="Path_4" data-name="Path 4" d="M50.774,47.662c-2.477-3.265-7.351-5.18-7.351-19.8,0-15.008-6.627-21.04-12.8-22.488-.579-.145-1-.338-1-.949V3.957A3.945,3.945,0,0,0,25.761,0h-.1A3.945,3.945,0,0,0,21.8,3.957v.466c0,.6-.418.8-1,.949C14.613,6.836,8,12.852,8,27.86,8,42.482,3.128,44.38.651,47.662a3.193,3.193,0,0,0,2.558,5.115H48.264A3.2,3.2,0,0,0,50.774,47.662Zm-6.273.933H6.989a.705.705,0,0,1-.531-1.174,19.487,19.487,0,0,0,3.378-5.373c1.544-3.635,2.3-8.284,2.3-14.187,0-6,1.126-10.7,3.362-13.962a10.321,10.321,0,0,1,6.225-4.44,5.637,5.637,0,0,0,2.992-1.689,1.272,1.272,0,0,1,1.914-.032,5.828,5.828,0,0,0,3.024,1.721,10.321,10.321,0,0,1,6.225,4.44c2.236,3.265,3.362,7.962,3.362,13.962,0,5.9.756,10.552,2.3,14.187A19.71,19.71,0,0,0,45,47.5.665.665,0,0,1,44.5,48.595Z" transform="translate(0)" fill="#9effff"/>
  </g>
</svg>
